<?xml version="1.0" standalone="no"?>
<!DOCTYPE svg PUBLIC "-//W3C//DTD SVG 20010904//EN"
 "http://www.w3.org/TR/2001/REC-SVG-20010904/DTD/svg10.dtd">
<svg version="1.0" xmlns="http://www.w3.org/2000/svg"
 width="470.000000pt" height="531.000000pt" viewBox="0 0 470.000000 531.000000"
 preserveAspectRatio="xMidYMid meet">
<metadata>
Created by potrace 1.16, written by Peter Selinger 2001-2019
</metadata>
<g transform="translate(0.000000,531.000000) scale(0.100000,-0.100000)"
fill="#000000" stroke="none">
<path d="M2185 4691 c-131 -13 -244 -70 -331 -168 -70 -78 -85 -115 -89 -217
-2 -66 -5 -76 -39 -120 -68 -89 -66 -83 -69 -344 -1 -224 0 -241 21 -301 21
-59 22 -65 7 -81 -14 -15 -16 -40 -13 -157 3 -128 5 -142 31 -192 15 -30 35
-59 43 -65 8 -6 35 -71 59 -145 24 -74 51 -141 60 -151 8 -9 15 -25 15 -36 0
-10 8 -29 18 -40 29 -36 128 -112 169 -129 64 -27 142 -117 129 -150 -3 -8 -1
-17 4 -20 22 -13 8 -23 -24 -18 -42 7 -188 -39 -232 -72 -17 -13 -52 -44 -79
-68 -27 -25 -64 -52 -84 -60 -94 -39 -173 -67 -191 -67 -26 0 -60 -55 -60 -95
0 -16 -12 -50 -27 -75 -14 -25 -32 -74 -39 -110 -7 -36 -17 -83 -23 -105 -6
-22 -11 -66 -11 -97 0 -31 -5 -69 -11 -85 -7 -15 -13 -37 -14 -48 -1 -11 -7
-49 -13 -85 -6 -36 -13 -117 -14 -181 -3 -113 -2 -116 25 -150 78 -97 106
-114 214 -124 l73 -8 6 -35 c6 -33 8 -231 3 -348 -3 -69 18 -142 47 -161 14
-9 26 -29 30 -51 3 -21 12 -46 19 -57 9 -15 11 -55 8 -148 l-5 -127 672 0 672
0 -6 33 c-3 17 -11 69 -16 114 -6 45 -17 97 -24 115 -8 20 -10 41 -5 53 4 11
8 32 8 46 1 14 13 36 27 50 59 55 75 141 49 264 -15 70 -15 101 -5 245 6 91
17 193 25 227 8 34 15 69 15 79 0 10 9 27 20 39 12 12 30 55 41 96 20 71 27
86 62 154 61 118 107 291 107 404 0 61 -26 149 -53 179 -9 10 -17 26 -17 35 0
9 -5 17 -10 17 -6 0 -19 15 -30 33 -32 54 -145 102 -225 95 -32 -2 -58 8 -51
20 13 21 -102 96 -130 85 -8 -3 -20 -1 -27 4 -22 18 -57 22 -57 7 0 -8 -3 -14
-7 -14 -7 0 -8 13 -4 78 1 19 117 128 177 168 86 55 151 125 164 175 11 43 14
54 48 151 10 26 23 48 30 48 7 0 16 8 19 18 4 9 26 37 50 61 23 24 52 64 64
88 24 49 38 179 28 253 -4 25 0 81 8 125 17 93 12 235 -12 365 -9 47 -20 108
-25 136 -19 112 -119 259 -204 299 -18 9 -60 38 -92 65 -32 27 -77 59 -99 71
-22 12 -49 29 -60 39 -11 10 -37 23 -57 30 -21 6 -38 15 -38 18 0 4 14 15 30
24 60 34 22 72 -87 87 -93 13 -490 21 -588 12z m9 -515 c35 -31 82 -61 109
-70 56 -19 173 -21 214 -4 26 11 23 12 -45 19 -41 4 -90 11 -110 15 -34 7 -31
8 38 15 41 4 122 21 180 38 191 56 269 51 384 -27 73 -49 152 -162 161 -230
12 -101 28 -190 47 -267 44 -173 28 -492 -29 -583 -32 -51 -63 -75 -70 -54 -4
10 -11 8 -29 -9 -25 -23 -54 -20 -54 6 0 8 -4 15 -10 15 -5 0 -10 -4 -10 -9 0
-5 -7 -17 -16 -26 -13 -12 -19 -13 -30 -4 -11 9 -18 9 -26 1 -18 -18 -46 -14
-53 6 -8 23 -47 67 -73 81 -29 16 -154 19 -407 11 -172 -6 -229 -11 -260 -24
-49 -21 -80 -49 -95 -87 -10 -24 -15 -27 -31 -18 -11 5 -24 7 -30 3 -6 -3 -17
2 -24 12 -12 16 -16 17 -24 5 -14 -21 -67 21 -74 59 -7 33 -24 40 -29 13 -4
-21 -51 54 -73 116 -31 89 -31 256 1 268 29 11 38 -15 36 -102 0 -46 4 -87 9
-90 5 -4 9 100 9 267 0 289 14 418 57 533 17 45 24 51 68 68 28 10 65 30 84
44 43 33 101 62 125 63 10 0 46 -24 80 -54z m1146 -673 c36 -21 40 -36 40
-150 0 -79 -4 -101 -26 -147 -33 -70 -117 -161 -140 -152 -15 6 -16 17 -10 89
11 129 51 335 72 368 8 14 33 11 64 -8z m-687 -493 c73 -12 108 -28 126 -61
46 -83 -71 -209 -196 -209 -17 0 -50 7 -73 15 -60 21 -129 19 -185 -6 -111
-49 -247 33 -247 149 0 25 8 43 29 63 23 24 43 31 118 43 106 16 345 20 428 6z
m127 -672 c21 -132 19 -153 -20 -194 -74 -75 -176 -115 -301 -115 -75 0 -87 3
-175 46 -63 30 -98 53 -103 68 -11 27 -8 32 40 67 22 16 35 31 29 35 -5 3 -10
11 -10 16 0 6 4 7 10 4 5 -3 20 1 33 10 13 8 26 12 29 9 4 -3 9 4 13 15 5 16
18 21 66 27 33 4 62 11 65 15 3 5 18 9 34 9 38 0 115 19 160 38 19 9 45 15 58
14 12 -1 22 3 22 8 0 6 8 10 18 10 16 0 21 -14 32 -82z m-517 -318 c39 -11 88
-24 107 -30 44 -13 132 -13 200 0 29 6 55 9 57 7 2 -2 -1 -28 -7 -57 -12 -65
-45 -149 -112 -288 -49 -103 -49 -103 -81 -97 -18 3 -61 9 -96 15 -36 5 -68
13 -72 17 -4 4 -13 55 -18 113 -16 153 -32 251 -47 287 -14 32 -18 53 -9 53 3
0 38 -9 78 -20z m-359 -440 l25 -9 -49 -90 c-28 -49 -50 -94 -50 -100 0 -14
-1 -14 -51 9 -24 11 -54 20 -66 20 -30 0 -29 8 7 45 17 18 41 52 54 76 29 54
74 71 130 49z m885 -521 c63 -11 125 -18 138 -14 27 6 33 -19 7 -29 -25 -10
-157 -7 -239 5 l-75 11 0 34 c0 32 1 33 28 23 15 -6 79 -20 141 -30z m-396
-125 c16 -6 41 -131 62 -309 28 -234 45 -347 56 -366 8 -16 20 -19 67 -17 52
3 57 1 60 -19 5 -33 31 -28 39 7 8 43 25 37 21 -8 l-3 -37 -255 1 c-251 1
-346 11 -458 45 -30 10 -60 44 -49 56 3 2 40 -5 81 -17 86 -24 155 -28 166
-11 4 7 10 107 13 224 7 199 23 425 33 456 3 11 20 12 80 7 41 -4 80 -9 87
-12z m675 -568 c2 -21 -2 -44 -9 -52 -20 -24 -114 -74 -188 -99 -77 -26 -81
-24 -81 40 0 30 4 34 53 54 28 12 66 29 82 38 81 45 120 63 130 60 5 -2 11
-20 13 -41z"/>
<path d="M2660 3919 c-78 -25 -90 -34 -90 -65 0 -29 11 -30 81 -5 130 44 205
39 304 -21 37 -22 69 -37 73 -34 3 4 -14 26 -38 51 -84 86 -208 114 -330 74z"/>
<path d="M1985 3905 c-27 -7 -57 -16 -65 -19 -19 -8 -94 -115 -86 -123 3 -3
28 13 56 35 36 29 68 44 108 53 56 11 86 7 240 -37 18 -5 22 -2 22 18 0 37
-29 57 -106 73 -81 17 -102 17 -169 0z"/>
<path d="M2715 3720 c-53 -27 -78 -49 -109 -95 -31 -45 -32 -55 -6 -55 13 0
25 11 33 33 17 38 41 62 81 77 31 11 50 5 26 -10 -9 -5 -15 -25 -15 -48 0 -37
-2 -40 -35 -50 -28 -8 -11 -10 90 -11 113 -1 218 14 238 34 11 11 -28 70 -60
90 -66 42 -83 48 -142 52 -48 3 -69 0 -101 -17z"/>
<path d="M1959 3689 c-37 -16 -52 -31 -74 -71 -20 -36 -24 -53 -16 -61 14 -14
170 -22 253 -13 l63 7 -4 47 -3 47 22 -20 c12 -11 26 -30 31 -42 5 -13 16 -23
24 -23 13 0 11 10 -12 52 -23 43 -37 55 -81 75 -66 29 -140 30 -203 2z"/>
</g>
</svg>
